<?xml version="1.0" encoding="UTF-8" standalone="no"?>
<svg xmlns:sketch="http://www.bohemiancoding.com/sketch/ns" xmlns="http://www.w3.org/2000/svg" height="356px" width="436px" version="1.1" xmlns:xlink="http://www.w3.org/1999/xlink" viewBox="0 0 436 356"><!-- Generator: Sketch 3.3.3 (12072) - http://www.bohemiancoding.com/sketch -->
 <title>Imported Layers</title>
 <desc>Created with Sketch.</desc>
 <g id="Page-1" fill-rule="evenodd" sketch:type="MSPage" fill="none">
  <g id="Imported-Layers" sketch:type="MSLayerGroup">
   <path id="Fill-1" sketch:type="MSShapeGroup" fill="#F8F8F7" d="m39.205 67.357l-38.733 33.273-0.00009 187.16c0 15.25 15.333 29.11 30.417 29.11h274.41c15.08 0 27.79-13.99 27.79-29.24v-220.3l-293.88-0.003"/>
   <path id="Fill-2" sketch:type="MSShapeGroup" fill="#E8EEEB" d="m30.889 308.59c-10.49 0-22.101-10.31-22.101-20.8l0.0003-195.48 22.101-16.634h293.88v211.98c0 10.56-8.98 20.93-19.48 20.93h-274.4l262.54-196.32"/>
   <path id="Fill-3" sketch:type="MSShapeGroup" fill="#65C4D7" d="m333.09 67.357v-37.432c0-15.251-8.55-29.113-23.64-29.113l-207.88-0.00004-66.527 66.545h298.05"/>
   <path id="Fill-4" sketch:type="MSShapeGroup" fill="#D0D0D0" d="m42.048 67.357h291.04v12.477h-291.04l-0.002-12.477z"/>
   <path id="Fill-5" sketch:type="MSShapeGroup" fill="#D0D0D0" d="m108.57 79.834v16.636c0 6.86-4.3 12.48-11.159 12.48h-96.939l-0.00009-8.32 101.1-20.796h7"/>
   <path id="Fill-6" sketch:type="MSShapeGroup" fill="#65C4D7" d="m100.26 0.81196v87.342c0 6.86-4.304 12.476-11.162 12.476h-87.312l98.474-99.818"/>
   <path id="Fill-7" sketch:type="MSShapeGroup" fill="#BEBEBE" d="m100.26 67.357h8.31v12.477h-8.31v-12.477z"/>
   <path id="Fill-8" sketch:type="MSShapeGroup" fill="#55B3C4" d="m100.26 0.81196h8.31v66.545h-8.31v-66.545z"/>
   <path id="Fill-9" sketch:type="MSShapeGroup" fill="#DFDFDF" d="m46.665 124.26h41.574v41.59h-41.574v-41.59z"/>
   <path id="Fill-10" sketch:type="MSShapeGroup" fill="#DFDFDF" d="m110.77 124.26h41.57v41.59h-41.57v-41.59z"/>
   <path id="Fill-11" sketch:type="MSShapeGroup" fill="#DFDFDF" d="m177.56 124.26h41.57v41.59h-41.57v-41.59z"/>
   <path id="Fill-12" sketch:type="MSShapeGroup" fill="#DFDFDF" d="m242.24 124.26h41.57v41.59h-41.57v-41.59z"/>
   <path id="Fill-13" sketch:type="MSShapeGroup" fill="#DFDFDF" d="m46.024 181.27h41.573v41.59h-41.573v-41.59z"/>
   <path id="Fill-14" sketch:type="MSShapeGroup" fill="#65C4D7" d="m110.13 181.27h41.57v41.59h-41.57v-41.59z"/>
   <path id="Fill-15" sketch:type="MSShapeGroup" fill="#DFDFDF" d="m176.92 181.27h41.57v41.59h-41.57v-41.59z"/>
   <path id="Fill-16" sketch:type="MSShapeGroup" fill="#DFDFDF" d="m241.6 181.27h41.57v41.59h-41.57v-41.59z"/>
   <path id="Fill-17" sketch:type="MSShapeGroup" fill="#DFDFDF" d="m46.024 236.59h41.573v41.59h-41.573v-41.59z"/>
   <path id="Fill-18" sketch:type="MSShapeGroup" fill="#DFDFDF" d="m110.13 236.59h41.57v41.59h-41.57v-41.59z"/>
   <path id="Fill-19" sketch:type="MSShapeGroup" fill="#DFDFDF" d="m176.92 236.59h41.57v41.59h-41.57v-41.59z"/>
   <path id="Fill-20" sketch:type="MSShapeGroup" fill="#DFDFDF" d="m241.6 241.59h41.57v41.59h-41.57v-41.59z"/>
   <path id="Fill-21" sketch:type="MSShapeGroup" fill="#E9EEEC" d="m435.22 253.37c0 56.43-45.73 102.17-102.13 102.17-56.41 0-102.14-45.74-102.14-102.17s45.73-102.17 102.14-102.17c56.4 0 102.13 45.74 102.13 102.17"/>
   <path id="Fill-22" sketch:type="MSShapeGroup" fill="#FAD638" d="m333.09 165.29c48.54 0 88.04 39.51 88.04 88.08s-39.5 88.08-88.04 88.08c-48.55 0-88.05-39.51-88.05-88.08s39.5-88.08 88.05-88.08m0-14.09c-56.41 0-102.14 45.74-102.14 102.17s45.73 102.17 102.14 102.17c56.4 0 102.13-45.74 102.13-102.17s-45.73-102.17-102.13-102.17"/>
   <path id="Fill-23" sketch:type="MSShapeGroup" fill="#6E7BAC" d="m333.09 171.91c-1.95 0-3.52 1.58-3.52 3.53v3.52c0 1.95 1.57 3.52 3.52 3.52 1.94 0 3.52-1.57 3.52-3.52v-3.52c0-1.95-1.58-3.53-3.52-3.53"/>
   <path id="Fill-24" sketch:type="MSShapeGroup" fill="#6E7BAC" d="m333.09 323.4c-1.95 0-3.52 1.58-3.52 3.53v3.52c0 1.95 1.57 3.52 3.52 3.52 1.94 0 3.52-1.57 3.52-3.52v-3.52c0-1.95-1.58-3.53-3.52-3.53"/>
   <path id="Fill-25" sketch:type="MSShapeGroup" fill="#6E7BAC" d="m410.57 249.42h-3.52c-1.95 0-3.53 1.57-3.53 3.52s1.58 3.53 3.53 3.53h3.52c1.94 0 3.52-1.58 3.52-3.53s-1.58-3.52-3.52-3.52"/>
   <path id="Fill-26" sketch:type="MSShapeGroup" fill="#6E7BAC" d="m259.13 249.42h-3.52c-1.95 0-3.53 1.57-3.53 3.52s1.58 3.53 3.53 3.53h3.52c1.94 0 3.52-1.58 3.52-3.53s-1.58-3.52-3.52-3.52"/>
   <path id="Fill-27" sketch:type="MSShapeGroup" fill="#6E7BAC" d="m385.38 195.65l-2.49 2.48c-1.38 1.38-1.38 3.61 0 4.99 0.69 0.69 1.59 1.03 2.49 1.03s1.81-0.34 2.49-1.03l2.49-2.49c1.38-1.38 1.38-3.61 0-4.98-1.37-1.38-3.6-1.38-4.98 0"/>
   <path id="Fill-28" sketch:type="MSShapeGroup" fill="#6E7BAC" d="m278.3 302.77l-2.49 2.49c-1.38 1.37-1.38 3.6 0 4.98 0.69 0.69 1.59 1.03 2.49 1.03s1.81-0.34 2.49-1.03l2.49-2.49c1.37-1.38 1.37-3.61 0-4.98-1.38-1.38-3.61-1.38-4.98 0"/>
   <path id="Fill-29" sketch:type="MSShapeGroup" fill="#6E7BAC" d="m387.87 302.77c-1.38-1.38-3.6-1.38-4.98 0-1.38 1.37-1.38 3.6 0 4.98l2.49 2.49c0.69 0.69 1.59 1.03 2.49 1.03s1.81-0.34 2.49-1.03c1.38-1.38 1.38-3.61 0-4.98l-2.49-2.49"/>
   <path id="Fill-30" sketch:type="MSShapeGroup" fill="#6E7BAC" d="m280.79 195.65c-1.38-1.38-3.61-1.38-4.98 0-1.38 1.37-1.38 3.6 0 4.98l2.49 2.49c0.69 0.69 1.59 1.03 2.49 1.03s1.8-0.34 2.49-1.03c1.37-1.38 1.37-3.61 0-4.99l-2.49-2.48"/>
   <path id="Stroke-31" stroke-linejoin="round" d="m322.52 252.94h-28.17 28.17v0zm10.57-10.57v-38.75 38.75 0zm-10.57 10.57c0 5.84 4.73 10.57 10.57 10.57 5.83 0 10.56-4.73 10.56-10.57 0-5.83-4.73-10.57-10.56-10.57-5.84 0-10.57 4.74-10.57 10.57v0z" sketch:type="MSShapeGroup" stroke="#3D4351" stroke-linecap="round" stroke-width="4"/>
  </g>
 </g>
</svg>
