<?xml version="1.0" encoding="UTF-8" standalone="no"?>
<svg xmlns:sketch="http://www.bohemiancoding.com/sketch/ns" xmlns="http://www.w3.org/2000/svg" height="131px" width="174px" version="1.1" xmlns:xlink="http://www.w3.org/1999/xlink" viewBox="0 0 174 131"><!-- Generator: Sketch 3.3.3 (12072) - http://www.bohemiancoding.com/sketch -->
 <title>Untitled 2</title>
 <desc>Created with Sketch.</desc>
 <g id="Page-1" fill-rule="evenodd" sketch:type="MSPage" fill="none">
  <g id="147---Credit-Card-(Flat)" transform="translate(106.65 64.715) rotate(-9) translate(-75.18 -52.94)" sketch:type="MSLayerGroup">
   <g id="Page-1" sketch:type="MSShapeGroup" transform="translate(0 26.805)">
    <g id="147---Credit-Card-(Flat)">
     <path id="Fill-619" fill="#E9E9E9" d="m6.0311 79.076c-3.3314 0-6.0311-2.711-6.0311-6.057v-66.962c0-3.3458 2.6997-6.057 6.0311-6.057h96.679c3.33 0 6.03 2.7112 6.03 6.0568v66.962c0 3.346-2.7 6.057-6.03 6.057h-96.679z"/>
     <path id="Fill-620" fill="#A5A5A4" d="m0 9.4138h108.74v15.062h-108.74v-15.062-0.0002z"/>
     <path id="Stroke-621" stroke="#fff" stroke-width="2" d="m13.123 35.772h14.998m7.499 0h14.999m-37.496 9.414h1.875m7.499 0h3.75m7.499 0h1.874m7.5 0h3.749m39.37 0h1.875m-29.996-9.414h14.998m7.499 0h14.998m-33.746 9.414h9.374"/>
     <path id="Fill-622" fill="#61CAE6" d="m60.485 62.238c-1.839-1.548-4.506 1.101-2.65 2.662 1.754 1.476 3.507 2.952 5.26 4.427 1.241 1.045 3.142 0.397 3.2-1.331 0.026-0.779 0.055-1.586 0.112-2.396 0.241-3.436 0.997-6.94 4.29-8.662 2.147-1.12 0.25-4.37-1.891-3.251-4.266 2.229-5.596 6.566-6.051 10.995-0.038 0.597-0.515-0.968-2.27-2.444z"/>
     <path id="Fill-623" fill="#61CAE6" d="m77.74 64.533c3.087-0.366 4.762-1.945 4.787-1.902 0.869 1 1.605 1.543 3.759 1.902 2.265 0.378 7.248-2.052 7.709-1.417 1.41 1.939 4.664 0.064 3.238-1.902-0.795-1.09-1.613-1.999-3.062-2.111-2.731-0.205-7.418 3.719-9.359 0.249-0.491-0.879-1.704-1.205-2.564-0.674-0.381 0.235-0.778 0.484-1.188 0.73-0.166 0.099-0.333 0.198-0.502 0.295-2.334 1.339-4.997 2.35-7.227-0.084-1.64-1.792-4.285 0.88-2.651 2.663 1.695 1.85 4.73 2.528 7.06 2.251z"/>
    </g>
   </g>
   <path id="Fill-550" sketch:type="MSShapeGroup" fill="#FFD92A" d="m148.13 12.547h-37.42c-1.09 0-1.97-0.881-1.97-1.966 0-1.0856 0.88-1.9666 1.97-1.9666h37.42c1.08 0 1.97 0.881 1.97 1.9666 0 1.085-0.89 1.966-1.97 1.966" transform="translate(129.42 10.581) rotate(-23) translate(-129.42 -10.581)"/>
   <path id="Fill-551" sketch:type="MSShapeGroup" fill="#FFD92A" d="m120.4 22.424c-1.09 0-1.97-0.881-1.97-1.966s0.88-1.966 1.97-1.966h21.66c1.09 0 1.97 0.881 1.97 1.966s-0.88 1.966-1.97 1.966h-21.66z" transform="translate(131.23 20.458) rotate(-23) translate(-131.23 -20.458)"/>
   <path id="Fill-552" sketch:type="MSShapeGroup" fill="#FFD92A" d="m142.22 34.177h-25.61c-1.08 0-1.97-0.881-1.97-1.967 0-1.085 0.89-1.966 1.97-1.966h25.61c1.08 0 1.97 0.881 1.97 1.966 0 1.086-0.89 1.967-1.97 1.967" transform="translate(129.42 32.21) rotate(-23) translate(-129.42 -32.21)"/>
  </g>
  <path id="Shape" sketch:type="MSShapeGroup" fill="#FFD92A" d="m7.3558 26.073c-0.6 5.398-3.6 8.4-9 9 5.4 0.6 8.401 3.601 9 9 0.6-5.399 3.6012-8.4 9.0012-9-5.4-0.6-8.4012-3.602-9.0012-9zm35.515 31.441c-0.467 4.198-2.8 6.532-7.001 7 4.201 0.466 6.534 2.8 7.001 7 0.467-4.2 2.8-6.534 7.001-7-4.201-0.468-6.534-2.802-7.001-7z" transform="translate(24.114 48.793) rotate(91) translate(-24.114 -48.793)"/>
 </g>
</svg>
