<?xml version="1.0" encoding="UTF-8" standalone="no"?>
<svg xmlns:sketch="http://www.bohemiancoding.com/sketch/ns" xmlns="http://www.w3.org/2000/svg" height="250px" width="333px" version="1.1" xmlns:xlink="http://www.w3.org/1999/xlink" viewBox="0 0 333 250"><!-- Generator: Sketch 3.3.3 (12072) - http://www.bohemiancoding.com/sketch -->
 <title>Untitled 4</title>
 <desc>Created with Sketch.</desc>
 <g id="Page-1" fill-rule="evenodd" sketch:type="MSPage" fill="none">
  <g id="id-cart" transform="translate(0 .36523)" sketch:type="MSLayerGroup">
   <g id="Group" sketch:type="MSShapeGroup">
    <path id="Shape" fill="#EAEAEA" d="m240.89 32.053h-80.3v16.023c0 8.844-7.19 16.022-16.06 16.022h-32.12c-8.86 0-16.056-7.178-16.056-16.022v-16.023h-80.295c-8.8645 0-16.059 7.178-16.059 16.023v160.22c0 8.85 7.1945 16.02 16.059 16.02h224.83c8.86 0 16.06-7.17 16.06-16.02v-160.22c0-8.857-7.2-16.027-16.06-16.027z"/>
    <g id="Shape" fill="#000" transform="translate(152.56 88.124)">
     <path d="m8.0295 16.031h64.236c4.44 0 8.029-3.581 8.029-8.0117 0-4.4302-3.589-8.0113-8.029-8.0113l-64.236 0.0000113c-4.4408 0-8.03 3.5811-8.03 8.0113 0 4.4307 3.5892 8.0117 8.0295 8.0117z"/>
     <path d="m72.266 32.053h-64.236c-4.4408 0-8.03 3.581-8.03 8.012 0 4.43 3.5892 8.011 8.0295 8.011h64.236c4.44 0 8.029-3.581 8.029-8.011 0-4.431-3.589-8.012-8.029-8.012z"/>
    </g>
    <path id="Shape" fill="#DAE2E5" d="m144.53 40.065c0 4.43-3.59 8.011-8.03 8.011h-16.06c-4.44 0-8.03-3.581-8.03-8.011v-32.046c0-4.4299 3.59-8.011 8.03-8.011l16.06 0.0000113c4.44 0 8.03 3.5811 8.03 8.0113v32.046z"/>
    <path id="Shape" opacity=".1" fill="#000" d="m112.41 32.053v8.012c0 4.43 3.59 8.011 8.03 8.011h16.06c4.44 0 8.03-3.581 8.03-8.011v-8.012h-32.12z"/>
    <g transform="translate(24.089 64.09)">
     <path id="Shape" fill="#61CAE6" d="m80.295 80.121h-24.088-24.089c-13.305 0-32.118 8.348-32.118 24.029v24.04h112.41v-24.04c0-15.857-18.81-24.029-32.115-24.029z"/>
     <path id="Shape-Copy" fill="#434854" d="m16.059 64.098v8.012h8.03c17.737 0 32.118-14.349 32.118-32.045h-16.059c-13.297 0-24.089 10.767-24.089 24.033z"/>
     <path id="Shape" fill="#F8F0CC" d="m64.236 0.0080113h-16.059c-13.297 0-24.088 10.767-24.088 24.034v16.023c0 17.696 14.381 32.045 32.118 32.045s32.118-14.349 32.118-32.045v-16.023c0-13.267-10.792-24.034-24.089-24.034v0.0000113z"/>
     <path id="Shape" opacity=".1" fill="#000" d="m56.207 64.098c-12.486 0-23.471-5.92-30.657-14.981 3.934 13.259 16.099 22.993 30.657 22.993 14.557 0 26.722-9.734 30.657-22.993-7.187 9.061-18.171 14.981-30.657 14.981z"/>
     <g id="Shape" fill="#434854" transform="translate(24.089)">
      <path d="m0 24.042v8.011h8.0295c17.738 0 32.118-14.348 32.118-32.045l-16.059 0.0000113c-13.297 0-24.089 10.767-24.089 24.034z"/>
      <path d="m40.148 0.0080113c0 14.909 10.261 27.335 24.088 30.908v-6.874c0-13.267-10.791-24.034-24.088-24.034v0.0000113z"/>
     </g>
     <path id="Shape" fill="#FFD92A" d="m40.148 80.121l8.029 16.023 8.03-16.023 8.029 16.023 8.03-16.023h-32.118z"/>
     <path id="Shape" fill="#469FCC" d="m64.236 96.144l-8.029 32.046-8.03-32.046 8.03-16.023 8.029 16.023z"/>
    </g>
   </g>
  </g>
  <text id="WAHOME" font-size="5" font-family="Gotham Rounded" letter-spacing="-.27778" sketch:type="MSTextLayer" font-weight="bold">
   <tspan y="170.996361" x="97.54636" fill="#FFD92A">WA</tspan>
   <tspan y="170.996361" x="106.010804" letter-spacing="-.13889" fill="#FFFFFF">HOME</tspan>
  </text>
  <g id="31---Toy-Car-(Flat)" transform="translate(174 152.68)" sketch:type="MSLayerGroup">
   <g id="Page-1" sketch:type="MSShapeGroup">
    <g id="31---Toy-Car-(Flat)">
     <path id="Fill-53" fill="#35C3EE" d="m153.31 49.165c-4.9-7.927-13.94-16.465-30.18-16.465h-13.67s-0.23-32.494-43.761-32.494c0 0.00033-31.825 1.9939-52.025 17.858-10.007 7.859-2.122 17.344-6.7002 27.512-2.2617 5.025-4.5398 11.031-5.8498 17.105-1.3291 6.146 5.3904 11.668 13.972 11.668h4.111c0-12.132 9.796-21.968 21.878-21.968 12.083 0 21.879 9.836 21.879 21.968h32.818c0-12.132 9.798-21.968 21.878-21.968s21.87 9.831 21.88 21.96v0.008h10.74c4.64 0 8.4-2.727 8.4-6.091 0-6.563-1.67-13.104-5.37-19.093"/>
     <path id="Fill-155" fill="#556080" d="m65.699 12.866s-26.044-2.12-38.351 17.547h68.434s-2.508-18.042-30.083-17.547"/>
     <path id="Fill-157" fill="#556080" d="m62.964 74.349c0 12.132-9.796 21.968-21.879 21.968-12.082 0-21.878-9.836-21.878-21.968s9.796-21.968 21.878-21.968c12.083 0 21.879 9.836 21.879 21.968"/>
     <path id="Fill-158" fill="#D1D4D1" d="m41.085 82.587c-4.523 0-8.204-3.696-8.204-8.238s3.681-8.238 8.204-8.238c4.524 0 8.205 3.696 8.205 8.238s-3.681 8.238-8.205 8.238"/>
     <path id="Fill-159" fill="#556080" d="m139.54 74.349c0 12.132-9.8 21.968-21.88 21.968s-21.878-9.836-21.878-21.968 9.798-21.968 21.878-21.968 21.88 9.836 21.88 21.968"/>
     <path id="Fill-160" fill="#D1D4D1" d="m117.66 82.587c-4.52 0-8.2-3.696-8.2-8.238s3.68-8.238 8.2-8.238 8.21 3.696 8.21 8.238-3.69 8.238-8.21 8.238"/>
     <path id="Fill-219" fill="#F0C419" d="m157.17 57.829c-0.88-2.971-2.14-5.879-3.86-8.664-2-3.232-4.7-6.557-8.28-9.372-2.33 1.917-3.75 4.418-3.75 7.173 0 6.025 6.73 10.907 15.04 10.907 0.29 0 0.57-0.03 0.85-0.044"/>
     <path id="Fill-417" fill="#8697CB" d="m68.371 30.413h5.47v-17.056c-1.685-0.236-3.52-0.373-5.47-0.428v17.484"/>
    </g>
   </g>
  </g>
  <text id="WAHOME" font-size="8" font-family="Gotham Rounded" letter-spacing="-0.1" sketch:type="MSTextLayer" font-weight="bold">
   <tspan y="197.333369" x="215.97509" fill="#FFD92A">WA</tspan>
   <tspan y="197.333369" x="230.20709" fill="#FFFFFF">HOM</tspan>
   <tspan y="197.333369" x="249.73109" fill="#FFFFFF">E</tspan>
  </text>
 </g>
</svg>
