<?xml version="1.0" encoding="UTF-8" standalone="no"?>
<svg width="64px" height="60px" viewBox="0 0 64 60" version="1.1" xmlns="http://www.w3.org/2000/svg" xmlns:xlink="http://www.w3.org/1999/xlink" xmlns:sketch="http://www.bohemiancoding.com/sketch/ns">
    <!-- Generator: Sketch 3.3.3 (12072) - http://www.bohemiancoding.com/sketch -->
    <title>Untitled 15</title>
    <desc>Created with Sketch.</desc>
    <defs></defs>
    <g id="Page-1" stroke="none" stroke-width="1" fill="none" fill-rule="evenodd" sketch:type="MSPage">
        <g id="bubble-chat-1" sketch:type="MSLayerGroup" fill="#61CAE6">
            <g id="Group" sketch:type="MSShapeGroup">
                <path d="M32,0.8 C14.4,0.8 0,12.6 0,27.2 C0,31.7 1.4,36.2 4.1,40.2 L4.1,40.2 C6.7,45.1 8,47.3 2.3,56.2 C1.8,57 1.9,57.9 2.5,58.6 C2.9,59 3.4,59.2 4,59.2 C4.3,59.2 4.6,59.1 4.8,59 C5.6,58.6 6.4,58.3 7.2,57.9 C12,55.6 18,52.7 22.6,52.7 C23.3,52.7 23.9,52.8 24.5,52.9 L24.8,52.9 C27.1,53.3 29.5,53.6 31.9,53.6 C49.5,53.6 63.9,41.8 63.9,27.2 C64,12.6 49.6,0.8 32,0.8 L32,0.8 Z M32,49.6 C29.9,49.6 27.7,49.4 25.6,49 L25.4,49 C24.5,48.8 23.6,48.7 22.7,48.7 C18.2,48.7 13.3,50.6 8.8,52.7 C11.5,46.8 10.4,43.3 7.8,38.4 C7.7,38.3 7.7,38.1 7.6,38 C5.2,34.7 4,31 4,27.2 C4,14.8 16.6,4.8 32,4.8 C47.4,4.8 60,14.8 60,27.2 C60,39.5 47.4,49.6 32,49.6 L32,49.6 Z" id="Shape"></path>
                <rect id="Rectangle-path" x="18" y="17.2" width="28" height="4"></rect>
                <rect id="Rectangle-path" x="18" y="25.2" width="28" height="4"></rect>
                <rect id="Rectangle-path" x="18" y="33.2" width="20" height="4"></rect>
            </g>
        </g>
    </g>
</svg>