<?xml version="1.0" encoding="UTF-8" standalone="no"?>
<svg xmlns:sketch="http://www.bohemiancoding.com/sketch/ns" xmlns="http://www.w3.org/2000/svg" height="101px" width="100px" version="1.1" xmlns:xlink="http://www.w3.org/1999/xlink" viewBox="0 0 100 101"><!-- Generator: Sketch 3.3.3 (12072) - http://www.bohemiancoding.com/sketch -->
 <title>Untitled 9</title>
 <desc>Created with Sketch.</desc>
 <g id="Page-1" fill-rule="evenodd" sketch:type="MSPage" fill="none">
  <g id="sand-watch" sketch:type="MSLayerGroup">
   <path id="Shape" sketch:type="MSShapeGroup" fill="#61CAE6" d="m50 0.056c27.614 0 50 22.386 50 50s-22.386 50.004-50 50.004-50-22.39-50-50.004 22.386-50 50-50z"/>
   <path id="Shape" sketch:type="MSShapeGroup" fill="#59B6CF" d="m26.666 20.583l-26.612 27.343c-0.03 0.707-0.054 1.415-0.054 2.13 0 27.614 22.386 50.004 50 50.004 5.799 0 11.361-1.002 16.54-2.817l-39.874-76.66z"/>
   <path id="Shape" sketch:type="MSShapeGroup" fill="#F2F1EF" d="m30 52.044c0 1.876 0.854 3.647 2.315 4.807l9.295 7.37c0.375 0.297 0.713 0.638 1.009 1.016l0.028 0.036c1.757 2.242 1.739 5.414-0.044 7.637-0.285 0.355-0.609 0.677-0.965 0.96l-9.323 7.393c-1.461 1.157-2.315 2.928-2.315 4.804v9.815c6.126 2.678 12.887 4.178 20 4.178s13.874-1.5 20-4.178v-9.815c0-1.876-0.853-3.647-2.314-4.806l-9.313-7.386c-0.363-0.287-0.691-0.615-0.98-0.978l-0.01-0.012c-1.773-2.229-1.779-5.401-0.016-7.637l0.02-0.024c0.293-0.37 0.627-0.705 0.996-0.998l9.304-7.377c1.46-1.158 2.313-2.929 2.313-4.805v-25.988h-40v25.988z"/>
   <path id="Shape" sketch:type="MSShapeGroup" fill="#E6E5E3" d="m48.619 65.236c-0.296-0.378-0.635-0.719-1.01-1.016l-9.294-7.37c-1.461-1.159-2.315-2.93-2.315-4.806v-25.988h-6v25.988c0 1.876 0.854 3.647 2.315 4.807l9.295 7.37c0.375 0.297 0.713 0.638 1.009 1.016l0.028 0.036c1.757 2.242 1.739 5.414-0.044 7.637-0.285 0.355-0.609 0.677-0.965 0.96l-9.323 7.393c-1.461 1.157-2.315 2.928-2.315 4.804v9.815c1.939 0.848 3.942 1.572 6 2.172v-11.987c0-1.876 0.854-3.647 2.315-4.806l9.323-7.393c0.356-0.283 0.681-0.604 0.966-0.96 1.782-2.223 1.801-5.395 0.043-7.637l-0.028-0.035z"/>
   <path id="Shape" sketch:type="MSShapeGroup" fill="#EFC75E" d="m34.179 54.5l9.295 7.37c0.56 0.443 1.066 0.954 1.507 1.516 1.115 1.423 1.751 3.07 1.926 4.749l3.093 2.922 3.088-2.916c0.17-1.687 0.809-3.336 1.925-4.75 0.454-0.576 0.955-1.077 1.506-1.514l9.303-7.377c0.748-0.595 1.178-1.489 1.178-2.456v-8.822c-3.518-3.839-12.831 2.835-20 2.835-6.263 0-11.583-3.94-14-2.824v8.811c0 0.967 0.43 1.861 1.179 2.456zm15.821 22.558c1.104 0 2 3.018 2 3 0 1.104-0.896 1.998-2 1.998s-2-0.894-2-1.998c0 0 0.896-3 2-3z"/>
   <path id="Shape" sketch:type="MSShapeGroup" fill="#CCAA50" d="m48.963 45.905c0.667 0.088 1.344 0.151 2.037 0.151 4.688 0 10.295-2.855 14.599-3.759-3.772-1.342-10.66 2.766-16.636 3.608z"/>
   <path id="Shape" sketch:type="MSShapeGroup" fill="#EFC75E" d="m50.016 88.055c-3.38 0-8.792 5.581-12.798 10.346 4.081 1.076 8.363 1.659 12.782 1.659 4.428 0 8.719-0.586 12.808-1.667-4.005-4.763-9.413-10.338-12.792-10.338z"/>
   <path id="Shape" sketch:type="MSShapeGroup" fill="#CCAA50" d="m50.016 88.055c-3.38 0-8.792 5.581-12.798 10.346 1.107 0.292 2.231 0.541 3.367 0.758 3.361-4.071 7.934-9.016 11.431-10.586-0.717-0.323-1.394-0.518-2-0.518zm-1.397-22.819c-0.296-0.378-0.635-0.719-1.01-1.016l-9.294-7.37c-1.461-1.159-2.315-2.93-2.315-4.806v-8.666c-1.236-0.352-2.256-0.489-3-0.146v8.811c0 0.967 0.43 1.861 1.179 2.456l9.295 7.37c0.56 0.443 1.066 0.954 1.507 1.516 1.115 1.423 1.751 3.07 1.926 4.749l2.787 2.633c0.534-1.854 0.199-3.906-1.047-5.495l-0.028-0.036z"/>
   <path id="Shape" sketch:type="MSShapeGroup" fill="#FAF9F9" d="m61.992 52.044c-0.148 3.675-4.774 6.928-9.653 13.182-0.005 0.006-2.714 3.712-0.004 7.661l0.01 0.012c3.437 5.039 9.562 9.758 9.647 13.169v12.53c1.361-0.335 2.698-0.73 4.013-1.175v-11.356c0-1.023-0.263-2.011-0.731-2.89l-8.767-6.951c-0.539-0.429-1.031-0.919-1.463-1.46-2.668-3.352-2.678-8.024-0.031-11.376 0.454-0.576 0.955-1.077 1.506-1.514l8.754-6.941c0.47-0.879 0.732-1.868 0.732-2.892v-25.987h-4.013v25.988z"/>
   <path id="Shape" sketch:type="MSShapeGroup" fill="#F9E9BF" d="m61.992 42.226v9.818c-0.148 3.675-4.774 6.928-9.653 13.182-0.004 0.004-1.491 2.047-1.154 4.713l1.903-1.798c0.082-0.817 0.278-1.626 0.584-2.404l0.049-0.126c0.147-0.359 0.318-0.712 0.514-1.055l0.094-0.156c0.206-0.346 0.429-0.686 0.685-1.009 0.454-0.576 0.955-1.077 1.506-1.514l8.754-6.942c0.47-0.878 0.732-1.867 0.732-2.891v-9.565c-1.074-0.537-2.449-0.541-4.014-0.253z"/>
   <path id="Shape" sketch:type="MSShapeGroup" fill="#F1E2BC" d="m62.023 42.221l-0.031 0.006v1.095c1.242-0.41 2.436-0.774 3.545-1.011l-0.3-0.106-0.169-0.043c-0.265-0.058-0.542-0.095-0.831-0.111l-0.074-0.007c-0.659-0.03-1.377 0.039-2.14 0.177z"/>
   <path id="Shape" sketch:type="MSShapeGroup" fill="#FFD92A" d="m28 20.056h44c1.104 0 2 0.896 2 2v2c0 1.104-0.896 2-2 2h-44c-1.104 0-2-0.896-2-2v-2c0-1.105 0.896-2 2-2z"/>
   <path id="Shape" sketch:type="MSShapeGroup" fill="#E2BE1C" d="m72 20.056h-44c-1.104 0-2 0.896-2 2v2c0-1.104 0.896-2 2-2h44c1.104 0 2 0.896 2 2v-2c0-1.105-0.896-2-2-2z"/>
  </g>
 </g>
</svg>
