<?xml version="1.0" encoding="UTF-8" standalone="no"?>
<svg xmlns:sketch="http://www.bohemiancoding.com/sketch/ns" xmlns="http://www.w3.org/2000/svg" height="102px" width="104px" version="1.1" xmlns:xlink="http://www.w3.org/1999/xlink" viewBox="0 0 104 102"><!-- Generator: Sketch 3.3.3 (12072) - http://www.bohemiancoding.com/sketch -->
 <title>Untitled 8</title>
 <desc>Created with Sketch.</desc>
 <g id="Page-1" fill-rule="evenodd" sketch:type="MSPage" fill="none">
  <g id="diploma" sketch:type="MSLayerGroup">
   <path id="Shape" sketch:type="MSShapeGroup" fill="#61CAE6" d="m0 50c0 27.615 22.834 50 51 50s51-22.385 51-50c0-14.388-6.199-27.356-16.121-36.478-9.121-8.3863-21.389-13.522-34.879-13.522-28.167 0-51 22.386-51 50z"/>
   <path id="Shape" sketch:type="MSShapeGroup" fill="#F3F3F3" d="m28.026 33.081l-2.027 40.541c0 0.836 0.887 13.423 1.487 21.854 7.348 4.146 15.827 6.524 24.865 6.524 27.988 0 50.679-22.688 50.679-50.676 0-8.815-2.26-17.103-6.217-24.324h-62.706c-3.358 0-6.081 2.723-6.081 6.081z"/>
   <path id="Shape" sketch:type="MSShapeGroup" fill="#DADADA" d="m70 77l-29.912-41-12.88 12.817-1.181 23.611 1.478 22.156c5.445 3.067 11.521 5.139 17.987 5.976l24.508-23.56z"/>
   <path id="Shape" sketch:type="MSShapeGroup" fill="#E7E7E7" d="m25.999 72l1.455 22.557c7.253 4.094 15.622 6.443 24.546 6.443 20.112 0 37.438-11.88 45.375-29h-71.376z"/>
   <path id="Shape" sketch:type="MSShapeGroup" fill="#CFCFCF" d="m70 77l-3.648-5h-40.303l-0.021 0.429 1.478 22.156c5.445 3.067 11.521 5.139 17.987 5.975l24.507-23.56z"/>
   <path id="Shape" sketch:type="MSShapeGroup" fill="#3E4E5C" d="m57.479 48.003l-15.465 7.089 12.524 27.906 6.682-5.971 8.783-0.055-12.524-28.969z"/>
   <path id="Shape" sketch:type="MSShapeGroup" fill="#52606D" d="m46.074 48.985l14.918 6.889-12.082 27.12-6.412-6.027-8.507 0.013 12.083-27.995z"/>
   <path id="Shape" sketch:type="MSShapeGroup" fill="#394754" d="m57.479 48.003l-15.465 7.089 7.402 16.494c0.861-0.442 1.754-1.076 2.584-1.076 1.381 0 2.936 1.763 4.229 1.462 1.334-0.31 1.988-2.597 3.191-3.191 1.223-0.604 3.375 0.291 4.426-0.568 0.748-0.61 0.781-1.963 1.035-3.087l-7.402-17.123z"/>
   <path id="Shape" sketch:type="MSShapeGroup" fill="#4C5965" d="m46.074 48.985l-6.959 16.123c0.256 1.127 0.286 2.49 1.037 3.104 1.051 0.858 3.203-0.036 4.428 0.568 1.203 0.595 1.857 2.882 3.191 3.191 1.293 0.301 2.848-1.462 4.229-1.462 0.678 0 1.397 0.425 2.106 0.821l6.887-15.457-14.919-6.888z"/>
   <path id="Shape" sketch:type="MSShapeGroup" fill="#FFD92A" d="m68.674 54.9c-0.303 1.367 1.027 3.315 0.447 4.549-0.59 1.253-2.912 1.397-3.752 2.475-0.844 1.082-0.467 3.434-1.523 4.297-1.051 0.859-3.203-0.036-4.426 0.568-1.203 0.596-1.857 2.885-3.191 3.194-1.293 0.301-2.848-1.463-4.229-1.463s-2.937 1.764-4.229 1.463c-1.334-0.31-1.988-2.599-3.191-3.194-1.225-0.604-3.377 0.291-4.428-0.568-1.056-0.863-0.68-3.215-1.522-4.297-0.839-1.077-3.162-1.222-3.752-2.475-0.581-1.233 0.751-3.182 0.448-4.549-0.295-1.323-2.326-2.485-2.326-3.9 0-1.414 2.032-2.576 2.326-3.9 0.303-1.367-1.028-3.316-0.448-4.548 0.59-1.253 2.913-1.398 3.752-2.474 0.843-1.083 0.467-3.434 1.522-4.298 1.051-0.859 3.203 0.037 4.428-0.568 1.203-0.596 1.857-2.884 3.191-3.194 1.292-0.301 2.848 1.464 4.229 1.464s2.936-1.765 4.229-1.464c1.334 0.311 1.988 2.599 3.191 3.194 1.223 0.605 3.377-0.291 4.426 0.569 1.057 0.864 0.68 3.214 1.523 4.297 0.84 1.076 3.162 1.221 3.752 2.474 0.58 1.233-0.75 3.181-0.447 4.548 0.293 1.324 2.326 2.486 2.326 3.9 0 1.415-2.033 2.577-2.326 3.9z"/>
   <path id="Shape" sketch:type="MSShapeGroup" fill="#E0C02E" d="m52 37.012c-7.74 0-14.014 6.265-14.014 13.994 0 7.728 6.274 13.993 14.014 13.993 7.741 0 14.014-6.266 14.014-13.993 0-7.729-6.274-13.994-14.014-13.994zm0 24.998c-6.07 0-10.992-4.928-10.992-11.004 0-6.078 4.922-11.005 10.992-11.005 6.071 0 10.991 4.927 10.991 11.005-0.001 6.076-4.921 11.004-10.991 11.004zm0-17.01c-3.314 0-6 2.686-6 6 0 3.313 2.686 6 6 6 3.313 0 6-2.687 6-6 0-3.314-2.688-6-6-6z"/>
   <g id="Group" sketch:type="MSShapeGroup" fill="#CCD0D2" transform="translate(82 38)">
    <path id="Shape" d="m20.502 20h-18.502c-1.105 0-2 0.896-2 2s0.895 2 2 2h17.771c0.295-1.315 0.541-2.648 0.731-4zm-20.502-18c0 1.105 0.895 2 2 2h18.176c-0.246-1.353-0.541-2.688-0.895-4h-17.281c-1.105 0-2 0.896-2 2zm0 10c0 1.105 0.895 2 2 2h18.975l0.025-1c0-1.008-0.039-2.007-0.098-3h-18.902c-1.105 0-2 0.896-2 2z"/>
   </g>
  </g>
 </g>
</svg>
