<?xml version="1.0" encoding="UTF-8" standalone="no"?>
<svg xmlns:sketch="http://www.bohemiancoding.com/sketch/ns" xmlns="http://www.w3.org/2000/svg" height="100px" width="100px" version="1.1" xmlns:xlink="http://www.w3.org/1999/xlink" viewBox="0 0 100 100"><!-- Generator: Sketch 3.3.3 (12072) - http://www.bohemiancoding.com/sketch -->
 <title>Untitled 10</title>
 <desc>Created with Sketch.</desc>
 <g id="Page-1" fill-rule="evenodd" sketch:type="MSPage" fill="none">
  <g id="bill" sketch:type="MSLayerGroup">
   <path id="Shape" sketch:type="MSShapeGroup" fill="#61CAE6" d="m50 0c27.614 0 50 22.386 50 50s-22.386 50-50 50-50-22.386-50-50 22.386-50 50-50z"/>
   <path id="Path" sketch:type="MSShapeGroup" fill="#61CAE6" d="m50 0c27.614 0 50 22.386 50 50s-22.386 50-50 50-50-22.386-50-50 22.386-50 50-50z"/>
   <path id="Shape" sketch:type="MSShapeGroup" fill="#4BADC7" d="m50 2c-12.174 0-23.329 4.355-32 11.587v66.413l4-3 4 3 4-3 4 3 4-3 4 3 4-3 4 3 4-3 4 3 4-3 4 3 4-3 4 3 4-3 4 3v-66.413c-8.672-7.232-19.826-11.587-32-11.587z"/>
   <path id="Shape" sketch:type="MSShapeGroup" fill="#F2F1EF" d="m18 11.438v65.562l4-2.962 4 2.962 4-2.962 4 2.962 4-2.962 4 2.962 4-2.962 4 2.962 4-2.962 4 2.962 4-2.962 4 2.962 4-2.962 4 2.962 4-2.962 4 2.962v-65.562c-8.672-7.1388-19.826-11.438-32-11.438s-23.329 4.2992-32 11.438z"/>
   <path id="Shape" sketch:type="MSShapeGroup" fill="#D9D8D7" d="m28 48h44v2h-44v-2z"/>
   <path id="Shape" sketch:type="MSShapeGroup" fill="#868686" d="m28 22.974h36v-3.997h-36v3.997zm28 4.004h-28v3.997h28v-3.997zm-28 11.996h34v-3.996h-34v3.996zm40-19.993v4.02h4v-4.02h-4zm0 12.02h4v-4.02h-4v4.02zm0 8h4v-4.02h-4v4.02z"/>
   <g id="Group" sketch:type="MSShapeGroup" fill="#FFD92A" transform="translate(28)">
    <path id="Shape" d="m9 1.717c-1.356 0.364-2.692 0.779-4 1.252v8.031h4v-9.283zm4-0.893c-0.671 0.122-1.338 0.256-2 0.405v9.771h2v-10.176zm-10 2.923c-1.017 0.418-2.018 0.867-3 1.349v5.904h3v-7.253zm15-3.573c-1.008 0.08-2.009 0.186-3 0.324v10.502h3v-10.826zm4-0.174c-0.671 0-1.336 0.024-2 0.051v10.949h2v-11zm18 3.353c-0.66-0.255-1.327-0.494-2-0.722v8.369h2v-7.647zm2 0.819v6.828h2v-5.904c-0.658-0.323-1.326-0.629-2-0.924zm-14-3.801c-1.318-0.158-2.651-0.268-4-0.32v10.949h4v-10.629zm4.001 0.631c-0.662-0.134-1.33-0.25-2.001-0.357v10.355h2.001v-9.998zm3.999 0.999c-0.661-0.193-1.326-0.376-1.999-0.542v9.541h1.999v-8.999z"/>
   </g>
   <path id="9,900" sketch:type="MSShapeGroup" fill="#4A4A4A" d="m41.926 66.156c2.587 0 3.978-2.015 3.978-4.966v-0.026c0-1.794-0.429-2.782-1.079-3.432-0.689-0.689-1.404-0.988-2.626-0.988-2.054 0-3.471 1.352-3.471 3.185v0.026c0 1.846 1.274 2.938 3.25 2.938 0.793 0 1.404-0.247 1.846-0.624-0.13 1.222-0.728 2.067-1.846 2.067-0.572 0-0.988-0.13-1.456-0.403-0.156-0.091-0.325-0.156-0.52-0.156-0.52 0-0.949 0.39-0.949 0.91 0 0.364 0.195 0.65 0.468 0.819 0.676 0.416 1.391 0.65 2.405 0.65zm0.377-4.927c-0.988 0-1.586-0.559-1.586-1.365v-0.026c0-0.806 0.559-1.378 1.547-1.378 1.001 0 1.599 0.585 1.599 1.391v0.026c0 0.78-0.572 1.352-1.56 1.352zm4.42 6.435c0 0.234 0.143 0.442 0.494 0.442 0.481 0 1.066-0.234 1.456-0.624 0.481-0.481 0.767-1.183 0.767-2.132v-0.052c0-0.897-0.429-1.456-1.157-1.456-0.65 0-1.079 0.455-1.079 1.066v0.026c0 0.559 0.455 0.949 0.91 1.066 0.026 0.624-0.338 1.079-1.001 1.235-0.221 0.052-0.39 0.195-0.39 0.429zm7.397-1.508c2.587 0 3.978-2.015 3.978-4.966v-0.026c0-1.794-0.429-2.782-1.079-3.432-0.689-0.689-1.404-0.988-2.626-0.988-2.054 0-3.471 1.352-3.471 3.185v0.026c0 1.846 1.274 2.938 3.25 2.938 0.793 0 1.404-0.247 1.846-0.624-0.13 1.222-0.728 2.067-1.846 2.067-0.572 0-0.988-0.13-1.456-0.403-0.156-0.091-0.325-0.156-0.52-0.156-0.52 0-0.949 0.39-0.949 0.91 0 0.364 0.195 0.65 0.468 0.819 0.676 0.416 1.391 0.65 2.405 0.65zm0.377-4.927c-0.988 0-1.586-0.559-1.586-1.365v-0.026c0-0.806 0.559-1.378 1.547-1.378 1.001 0 1.599 0.585 1.599 1.391v0.026c0 0.78-0.572 1.352-1.56 1.352zm9.035 4.927c2.431 0 4.056-2.067 4.056-4.706v-0.026c0-2.639-1.625-4.68-4.03-4.68-2.418 0-4.056 2.067-4.056 4.706v0.026c0 2.639 1.599 4.68 4.03 4.68zm0.026-1.807c-1.209 0-2.002-1.235-2.002-2.899v-0.026c0-1.664 0.78-2.873 1.976-2.873s2.002 1.248 2.002 2.899v0.026c0 1.651-0.767 2.873-1.976 2.873zm9.464 1.807c2.431 0 4.056-2.067 4.056-4.706v-0.026c0-2.639-1.625-4.68-4.03-4.68-2.418 0-4.056 2.067-4.056 4.706v0.026c0 2.639 1.599 4.68 4.03 4.68zm0.026-1.807c-1.209 0-2.002-1.235-2.002-2.899v-0.026c0-1.664 0.78-2.873 1.976-2.873s2.002 1.248 2.002 2.899v0.026c0 1.651-0.767 2.873-1.976 2.873z"/>
  </g>
 </g>
</svg>
