<?xml version="1.0" encoding="UTF-8" standalone="no"?>
<!-- Generator: Adobe Illustrator 18.1.0, SVG Export Plug-In . SVG Version: 6.00 Build 0)  -->
<!DOCTYPE svg  PUBLIC '-//W3C//DTD SVG 1.1//EN'  'http://www.w3.org/Graphics/SVG/1.1/DTD/svg11.dtd'>
<svg id="logo_x40_2x_xA0_Image_1_" xmlns="http://www.w3.org/2000/svg" xml:space="preserve" viewBox="0 0 250 200" version="1.1" y="0px" x="0px" xmlns:xlink="http://www.w3.org/1999/xlink" enable-background="new 0 0 250 200">
	<path d="m3.7 89.2c-0.2-0.5-0.3-1.1-0.3-1.5 0-2.3 1.9-4 4.2-4 1.9 0 3.4 1.2 4 2.9l7.3 22.6 7.4-22.4c0.6-1.9 2.1-3.2 4.1-3.2h0.6c2.1 0 3.5 1.3 4.1 3.2l7.4 22.4 7.3-22.6c0.5-1.6 1.9-2.9 3.9-2.9 2.2 0 4 1.7 4 3.9 0 0.5-0.2 1.1-0.3 1.6l-10.3 29c-0.7 2.1-2.3 3.3-4.2 3.3h-0.8c-2 0-3.4-1.2-4.2-3.3l-7.3-21.1-7.3 21.1c-0.7 2.1-2.2 3.3-4.2 3.3h-0.8c-2 0-3.5-1.3-4.2-3.3l-10.4-29z" fill="#FFD828"/>
	<path d="m56 115.7l12.9-29c0.9-2 2.5-3.2 4.7-3.2h0.5c2.2 0 3.8 1.2 4.7 3.2l12.9 29c0.3 0.6 0.4 1.1 0.4 1.6 0 2.2-1.7 3.9-3.8 3.9-1.9 0-3.2-1.1-3.9-2.8l-2.5-5.8h-16.3l-2.6 6.1c-0.7 1.6-2.1 2.5-3.7 2.5-2.1 0-3.7-1.7-3.7-3.8 0-0.5 0.2-1.1 0.4-1.7zm22.9-10.2l-5.1-12.2-5.1 12.2h10.2z" fill="#FFD828"/>
	<path d="m95.8 87.8c0-2.3 1.8-4.1 4.1-4.1s4.1 1.8 4.1 4.1v10.9h15v-10.9c0-2.3 1.8-4.1 4.1-4.1s4.1 1.8 4.1 4.1v29.4c0 2.3-1.8 4.1-4.1 4.1s-4.1-1.8-4.1-4.1v-11.1h-15v11.1c0 2.3-1.8 4.1-4.1 4.1s-4.1-1.8-4.1-4.1v-29.4z" fill="#61CAE5"/>
	<path d="m131.7 102.6v-0.1c0-10.5 8.3-19.1 19.7-19.1s19.6 8.5 19.6 19v0.1c0 10.5-8.3 19.1-19.7 19.1-11.5 0-19.6-8.5-19.6-19zm30.7 0v-0.1c0-6.3-4.6-11.6-11.2-11.6-6.5 0-11.1 5.2-11.1 11.5v0.1c0 6.3 4.6 11.6 11.2 11.6s11.1-5.2 11.1-11.5z" fill="#61CAE5"/>
	<path d="m175.5 87.9c0-2.3 1.8-4.1 4.1-4.1h0.9c1.7 0 3 0.9 3.7 2.1l9.8 16 9.9-16c0.8-1.4 2-2.1 3.6-2.1h0.9c2.3 0 4.1 1.8 4.1 4.1v29.3c0 2.3-1.8 4.1-4.1 4.1-2.2 0-4-1.8-4-4.1v-18.4l-7.1 11c-0.8 1.3-1.9 2.1-3.4 2.1s-2.5-0.8-3.4-2.1l-7-10.8v18.3c0 2.2-1.8 4-4 4s-4-1.7-4-4v-29.4z" fill="#61CAE5"/>
	<path d="m218.6 116.9v-28.8c0-2.3 1.8-4.1 4.1-4.1h20.5c2 0 3.6 1.6 3.6 3.6s-1.6 3.6-3.6 3.6h-16.4v7.5h14.1c2 0 3.6 1.6 3.6 3.6s-1.6 3.6-3.6 3.6h-14.1v7.7h16.7c2 0 3.6 1.6 3.6 3.6s-1.6 3.6-3.6 3.6h-20.7c-2.4 0.1-4.2-1.7-4.2-3.9z" fill="#61CAE5"/>
</svg>
