<?xml version="1.0" encoding="UTF-8" standalone="no"?>
<svg width="43px" height="36px" viewBox="0 0 43 36" version="1.1" xmlns="http://www.w3.org/2000/svg" xmlns:xlink="http://www.w3.org/1999/xlink" xmlns:sketch="http://www.bohemiancoding.com/sketch/ns">
    <!-- Generator: Sketch 3.3.3 (12072) - http://www.bohemiancoding.com/sketch -->
    <title>Untitled</title>
    <desc>Created with Sketch.</desc>
    <defs></defs>
    <g id="Page-1" stroke="none" stroke-width="1" fill="none" fill-rule="evenodd" sketch:type="MSPage">
        <g id="Imported-Layers" sketch:type="MSLayerGroup" fill="#E9E5E5">
            <path d="M15.498,11.513 C15.498,11.513 16.099,14.31 18.613,14.31 C18.613,14.31 20.624,14.603 21.628,12.362 C21.628,12.362 22.384,10.748 24.497,10.748 C24.497,10.748 27.509,10.876 27.509,13.8 C27.509,13.8 27.105,17.869 21.681,17.869 C21.681,17.869 15.498,17.611 15.498,11.513" id="Fill-1" sketch:type="MSShapeGroup"></path>
            <path d="M23.89,9.436 C23.89,9.436 22.837,7.36 21.981,8.292 C21.981,8.292 21.279,8.842 21.127,11.425 C21.127,11.425 21.127,12.784 19.718,12.784 C19.717,12.784 18.411,12.994 18.411,11.298 C18.411,11.298 18.059,6.723 21.176,6.255 C21.176,6.255 23.89,6 23.89,9.436" id="Fill-2" sketch:type="MSShapeGroup"></path>
            <path d="M12.354,11.682 L12.868,11.723 L12.868,12.065 L12.354,12.018 L12.354,11.682" id="Fill-3" sketch:type="MSShapeGroup"></path>
            <path d="M14.694,8.884 L14.694,8.586 C14.822,8.544 14.948,8.415 15.036,8.248 C15.118,8.08 15.162,7.909 15.162,7.741 C15.162,7.611 15.118,7.526 15.036,7.487 C14.948,7.445 14.822,7.445 14.736,7.526 C14.735,7.526 14.736,7.526 14.694,7.526 L14.694,7.23 C14.865,7.186 15.036,7.186 15.162,7.274 C15.333,7.36 15.416,7.487 15.416,7.697 C15.455,7.909 15.416,8.119 15.288,8.376 C15.118,8.629 14.989,8.798 14.776,8.884 L14.694,8.884 L14.694,8.884 Z M13.422,6.594 C13.504,6.552 13.59,6.425 13.676,6.34 C13.676,6.384 13.715,6.425 13.762,6.509 C13.762,6.552 13.802,6.594 13.844,6.594 C13.715,6.769 13.59,6.853 13.422,6.933 L13.422,6.594 L13.422,6.594 Z M14.694,7.23 L14.694,7.23 C14.523,7.315 14.352,7.445 14.227,7.653 L13.844,7.445 L14.352,6.552 L14.098,6.384 L13.422,7.697 L13.422,8.248 L13.715,7.653 L14.098,7.865 C13.974,8.08 13.974,8.292 14.014,8.503 C14.058,8.671 14.14,8.798 14.269,8.842 C14.436,8.925 14.566,8.925 14.694,8.884 L14.694,8.586 L14.694,8.629 C14.566,8.671 14.483,8.671 14.395,8.629 C14.31,8.586 14.269,8.503 14.269,8.376 C14.269,8.248 14.31,8.08 14.395,7.909 C14.483,7.741 14.608,7.611 14.694,7.526 L14.694,7.23 L14.694,7.23 Z M12.781,5.959 L13.036,6.086 L12.654,6.769 C12.868,6.853 13.036,6.811 13.208,6.723 C13.289,6.684 13.333,6.684 13.422,6.594 L13.422,6.933 C13.375,6.975 13.375,6.975 13.333,6.975 C13.164,7.063 13.036,7.063 12.91,7.063 C12.993,7.144 13.036,7.315 13.036,7.487 C13.076,7.697 13.076,7.909 12.993,8.08 L12.825,8.08 C12.781,8.08 12.741,8.08 12.654,8.119 C12.741,7.909 12.781,7.741 12.781,7.526 C12.741,7.315 12.654,7.144 12.529,7.063 L12.143,7.697 L11.889,7.572 L12.781,5.959 L12.781,5.959 Z M13.422,7.697 L12.993,8.459 L13.208,8.586 L13.422,8.248 L13.422,7.697 L13.422,7.697 Z" id="Fill-4" sketch:type="MSShapeGroup"></path>
            <path d="M17.072,3.547 C17.156,3.588 17.241,3.588 17.327,3.63 C17.496,3.63 17.625,3.63 17.706,3.588 L17.706,3.63 L17.706,3.759 L17.706,3.923 C17.496,3.923 17.285,3.923 17.072,3.843 L17.072,3.547 L17.072,3.547 Z M17.072,5.619 L17.072,5.278 L17.241,5.155 L17.072,4.857 L17.072,4.39 L17.454,5.026 L18.347,4.477 L18.515,4.691 L17.072,5.619 L17.072,5.619 Z M16.135,2.907 C16.179,2.907 16.179,2.907 16.179,2.953 C16.179,2.99 16.224,3.034 16.224,3.034 C16.224,3.078 16.224,3.078 16.266,3.117 C16.308,3.163 16.392,3.246 16.518,3.33 C16.647,3.379 16.772,3.459 16.904,3.505 C16.946,3.505 16.987,3.547 17.072,3.547 L17.072,3.843 L16.987,3.843 C16.733,3.759 16.518,3.671 16.348,3.505 C16.392,3.759 16.392,3.969 16.392,4.219 C16.348,4.519 16.266,4.731 16.093,4.941 C16.052,4.899 16.01,4.899 15.97,4.857 C15.927,4.857 15.883,4.816 15.798,4.816 C15.883,4.731 15.97,4.602 16.01,4.434 C16.093,4.309 16.093,4.138 16.093,3.969 C16.093,3.796 16.093,3.63 16.052,3.459 C16.01,3.29 15.97,3.163 15.883,3.034 L16.052,2.953 C16.093,2.907 16.135,2.907 16.135,2.907 L16.135,2.907 Z M17.072,4.39 L17.03,4.39 L17.03,4.351 C17.03,4.309 17.03,4.265 16.987,4.265 C16.987,4.265 16.946,4.265 16.862,4.309 L16.733,4.39 L17.072,4.857 L17.072,4.39 L17.072,4.39 Z M17.072,5.278 L17.072,5.619 L16.518,5.959 L16.392,5.746 L17.072,5.278 L17.072,5.278 Z" id="Fill-5" sketch:type="MSShapeGroup"></path>
            <path d="M21.15,1.511 C21.15,2.103 21.064,2.612 20.895,3.078 C20.765,3.505 20.512,3.843 20.171,4.097 C20.13,4.052 20.13,4.011 20.087,3.969 C20.045,3.923 20,3.881 19.961,3.843 C20.255,3.671 20.471,3.379 20.641,2.99 C20.81,2.656 20.895,2.228 20.895,1.805 L19.961,1.89 L19.921,1.596 L21.15,1.511 L21.15,1.511 Z M21.871,1.123 L21.871,1.211 L21.871,1.255 L22.084,4.434 L21.829,4.477 L21.573,1.086 L21.785,1.086 C21.829,1.086 21.871,1.086 21.871,1.123 L21.871,1.123 Z" id="Fill-6" sketch:type="MSShapeGroup"></path>
            <path d="M26.037,2.357 C26.037,2.526 26.037,2.7 25.95,2.907 L25.95,2.147 C25.989,2.188 25.989,2.274 26.037,2.357 L26.037,2.357 Z M25.95,4.777 L25.95,4.177 L26.077,4.219 C26.164,4.265 26.203,4.309 26.203,4.309 C26.164,4.351 26.164,4.351 26.119,4.39 L26.119,4.434 L25.95,4.777 L25.95,4.777 Z M25.95,3.201 L26.289,3.379 L25.989,4.097 L26.203,4.177 L26.925,2.572 L26.968,2.526 C27.011,2.481 27.011,2.481 27.011,2.443 C27.011,2.443 27.011,2.401 26.925,2.401 L26.798,2.312 L26.416,3.117 L25.989,2.907 L25.95,2.99 L25.95,3.201 L25.95,3.201 Z M25.95,2.907 L25.95,2.953 C25.822,3.163 25.695,3.33 25.525,3.418 C25.48,3.459 25.4,3.505 25.353,3.505 L25.353,3.246 C25.4,3.201 25.4,3.201 25.437,3.163 C25.565,3.117 25.652,2.99 25.695,2.866 C25.781,2.7 25.781,2.572 25.781,2.443 C25.738,2.312 25.695,2.228 25.565,2.188 C25.48,2.147 25.437,2.147 25.353,2.147 L25.353,1.89 C25.437,1.85 25.565,1.85 25.695,1.89 C25.822,1.975 25.906,2.061 25.95,2.147 L25.95,2.907 L25.95,2.907 Z M25.95,2.99 L25.865,3.163 L25.95,3.201 L25.95,2.99 L25.95,2.99 Z M25.95,4.177 L25.95,4.777 L25.652,5.495 L25.4,5.409 L25.437,5.278 L25.353,5.239 L25.353,4.941 L25.565,5.026 L25.695,4.731 L25.353,4.561 L25.353,4.265 L25.822,4.477 L25.95,4.177 L25.95,4.177 Z M25.353,3.505 C25.226,3.547 25.102,3.505 25.015,3.459 C24.803,3.379 24.717,3.246 24.677,3.034 C24.63,2.866 24.677,2.656 24.761,2.443 C24.843,2.228 24.974,2.061 25.141,1.975 C25.226,1.929 25.271,1.89 25.353,1.89 L25.353,2.147 C25.312,2.188 25.271,2.188 25.226,2.228 C25.141,2.274 25.058,2.401 24.974,2.526 C24.929,2.7 24.888,2.827 24.929,2.953 C24.929,3.078 25.015,3.163 25.102,3.201 C25.181,3.246 25.271,3.246 25.353,3.246 L25.353,3.505 L25.353,3.505 Z M25.353,4.265 L25.353,4.561 L24.63,4.219 L24.465,4.561 L25.353,4.941 L25.353,5.239 L24.38,4.816 L24.334,4.899 L24.08,4.816 L24.63,3.588 L24.761,3.671 C24.843,3.671 24.888,3.711 24.888,3.759 L24.843,3.796 C24.803,3.796 24.803,3.843 24.803,3.843 L24.717,3.969 L25.353,4.265 L25.353,4.265 Z" id="Fill-7" sketch:type="MSShapeGroup"></path>
            <path d="M30.325,5.239 L30.113,5.453 L29.941,5.194 L29.941,4.777 L30.325,5.239 L30.325,5.239 Z M29.941,6.769 L29.941,6.471 L30.748,5.832 L30.874,5.959 C30.916,6 30.916,6.04 30.916,6.086 L30.833,6.086 L30.833,6.127 L30.79,6.127 L29.941,6.769 L29.941,6.769 Z M29.941,6.04 L30.154,5.873 L29.941,5.619 L29.941,6.04 L29.941,6.04 Z M29.941,5.194 L29.728,4.941 L29.941,4.816 L29.941,5.194 L29.941,5.194 Z M29.941,5.619 L29.306,4.777 L29.049,4.941 L29.389,5.409 C29.26,5.495 29.093,5.58 28.881,5.58 C28.709,5.619 28.539,5.58 28.412,5.534 L28.412,5.832 C28.497,5.832 28.582,5.873 28.667,5.873 C28.838,5.873 29.009,5.832 29.179,5.791 C29.093,5.873 29.049,6 29.009,6.171 C28.963,6.298 28.921,6.471 28.921,6.684 L29.093,6.684 L29.26,6.684 C29.22,6.471 29.26,6.255 29.306,6.086 C29.389,5.873 29.473,5.746 29.6,5.619 L29.9,6.04 L29.941,6.04 L29.941,5.619 L29.941,5.619 Z M29.941,6.471 L29.941,6.769 L29.22,7.36 L29.049,7.144 L29.728,6.636 L29.473,6.298 L29.689,6.127 L29.941,6.471 L29.941,6.471 Z M28.412,7.865 L28.412,7.611 C28.457,7.611 28.539,7.611 28.582,7.572 C28.667,7.487 28.709,7.401 28.709,7.274 C28.667,7.144 28.625,6.975 28.497,6.811 C28.457,6.811 28.412,6.769 28.412,6.723 L28.412,6.34 C28.497,6.425 28.625,6.509 28.709,6.636 C28.881,6.89 28.963,7.102 28.963,7.274 C28.963,7.487 28.881,7.653 28.756,7.741 C28.625,7.822 28.539,7.865 28.412,7.865 L28.412,7.865 Z M28.412,5.534 L28.412,5.832 C28.327,5.832 28.2,5.791 28.117,5.746 C28.156,5.707 28.156,5.666 28.156,5.619 C28.2,5.534 28.2,5.495 28.2,5.453 C28.283,5.495 28.327,5.534 28.412,5.534 L28.412,5.534 Z M28.412,6.34 L28.412,6.723 C28.283,6.636 28.2,6.552 28.117,6.509 C27.988,6.471 27.9,6.471 27.777,6.552 C27.689,6.594 27.648,6.723 27.689,6.853 C27.689,6.975 27.777,7.102 27.9,7.274 C28.031,7.445 28.156,7.526 28.283,7.611 L28.412,7.611 L28.412,7.865 L28.241,7.865 C28.031,7.822 27.863,7.697 27.689,7.445 C27.48,7.23 27.392,7.019 27.435,6.811 C27.435,6.636 27.48,6.471 27.648,6.34 C27.777,6.213 27.947,6.213 28.156,6.255 C28.241,6.255 28.327,6.298 28.412,6.34 L28.412,6.34 Z" id="Fill-8" sketch:type="MSShapeGroup"></path>
            <path d="M31.088,10.582 L30.619,10.663 L30.536,10.326 L31.045,10.243 L31.088,10.582" id="Fill-9" sketch:type="MSShapeGroup"></path>
            <path d="M21.785,23.717 C28.283,23.717 33.596,18.417 33.596,11.936 C33.596,5.453 28.283,0.197 21.785,0.197 L21.785,0.666 C28.031,0.666 33.086,5.707 33.086,11.936 C33.086,18.165 28.031,23.248 21.785,23.248 L21.785,23.717 L21.785,23.717 Z M21.785,23.717 L21.785,23.248 C15.54,23.248 10.489,18.165 10.489,11.936 C10.489,5.707 15.54,0.666 21.785,0.666 L21.785,0.197 C15.288,0.197 9.979,5.453 9.979,11.936 C9.979,18.417 15.288,23.717 21.785,23.717 L21.785,23.717 Z" id="Fill-10" sketch:type="MSShapeGroup"></path>
            <path d="M21.785,19.102 C25.738,19.102 28.963,15.878 28.963,11.936 C28.963,7.992 25.738,4.777 21.785,4.777 L21.785,5.278 C25.48,5.278 28.497,8.248 28.497,11.936 C28.497,15.621 25.48,18.629 21.785,18.629 L21.785,19.102 L21.785,19.102 Z M21.785,19.102 L21.785,18.629 C18.091,18.629 15.075,15.621 15.075,11.936 C15.075,8.248 18.091,5.278 21.785,5.278 L21.785,4.777 C17.84,4.777 14.608,7.992 14.608,11.936 C14.608,15.878 17.84,19.102 21.785,19.102 L21.785,19.102 Z" id="Fill-11" sketch:type="MSShapeGroup"></path>
            <path d="M16.179,18.677 C16.266,18.59 16.308,18.463 16.308,18.379 C16.308,18.252 16.266,18.165 16.224,18.08 C16.135,18.042 16.052,17.998 15.97,17.998 C15.883,17.998 15.798,18.042 15.715,18.126 C15.628,18.207 15.585,18.292 15.585,18.379 C15.585,18.463 15.628,18.59 15.671,18.758 C15.754,19.014 15.798,19.185 15.798,19.269 C15.798,19.395 15.715,19.564 15.585,19.688 C15.416,19.861 15.247,19.946 15.118,19.99 C14.948,19.99 14.822,19.946 14.694,19.775 C14.523,19.649 14.436,19.482 14.483,19.312 C14.483,19.137 14.608,18.971 14.776,18.758 L14.906,18.932 C14.776,19.058 14.694,19.185 14.694,19.312 C14.694,19.436 14.736,19.522 14.822,19.612 C14.948,19.688 15.036,19.734 15.118,19.734 C15.202,19.734 15.288,19.688 15.373,19.612 C15.416,19.522 15.455,19.482 15.499,19.482 C15.499,19.436 15.54,19.395 15.54,19.312 C15.54,19.269 15.54,19.225 15.499,19.137 C15.499,19.102 15.499,19.014 15.455,18.887 L15.416,18.846 C15.373,18.629 15.333,18.504 15.333,18.417 C15.333,18.292 15.416,18.126 15.54,17.998 C15.671,17.869 15.798,17.788 15.927,17.74 C16.093,17.74 16.224,17.788 16.348,17.911 C16.518,18.042 16.608,18.207 16.561,18.417 C16.518,18.546 16.434,18.677 16.308,18.846 L16.179,18.677" id="Fill-12" sketch:type="MSShapeGroup"></path>
            <path d="M19.961,22.32 L20.344,20.581 L19.492,22.236 L19.324,22.193 L19.239,20.328 L18.854,22.061 L18.646,22.022 L19.194,19.688 L19.452,19.734 L19.538,21.681 L20.471,19.946 L20.724,20.029 L20.171,22.359 L19.961,22.32" id="Fill-13" sketch:type="MSShapeGroup"></path>
            <path d="M24.504,19.775 L24.504,19.775 C24.59,19.861 24.677,19.99 24.761,20.201 C24.803,20.328 24.803,20.413 24.761,20.538 C24.761,20.623 24.717,20.665 24.677,20.75 C24.761,20.75 24.843,20.796 24.888,20.838 C24.974,20.921 25.058,21.045 25.102,21.217 C25.181,21.471 25.181,21.644 25.141,21.768 C25.102,21.896 24.974,21.981 24.803,22.022 L24.504,22.109 L24.504,21.896 L24.677,21.811 C24.803,21.811 24.888,21.724 24.929,21.681 C24.974,21.602 24.974,21.471 24.929,21.302 C24.843,21.134 24.803,21.009 24.717,20.965 C24.63,20.921 24.59,20.921 24.504,20.921 L24.504,20.665 C24.504,20.623 24.547,20.623 24.547,20.581 C24.59,20.496 24.59,20.367 24.547,20.242 C24.547,20.201 24.504,20.115 24.504,20.074 L24.504,19.775 L24.504,19.775 Z M23.483,19.902 L24.121,19.734 C24.248,19.688 24.38,19.688 24.504,19.775 L24.504,20.074 C24.465,20.029 24.418,20.029 24.38,19.99 C24.334,19.946 24.248,19.946 24.121,19.99 L23.74,20.074 L23.952,20.838 L24.334,20.75 C24.38,20.708 24.465,20.708 24.504,20.665 L24.504,20.921 C24.465,20.965 24.465,20.965 24.418,20.965 L24.039,21.09 L24.291,21.938 L24.504,21.896 L24.504,22.109 L24.165,22.236 L23.483,19.902 L23.483,19.902 Z" id="Fill-14" sketch:type="MSShapeGroup"></path>
            <path d="M28.412,19.185 L28.797,19.817 L28.625,19.99 L28.2,19.225 L28.2,18.846 L28.283,18.971 L28.667,18.629 L28.2,18.334 L28.2,18.08 L29.643,18.971 L29.516,19.137 L28.881,18.758 L28.412,19.185 L28.412,19.185 Z M28.2,19.225 L27.392,17.823 L27.521,17.701 L28.2,18.08 L28.2,18.334 L27.734,18.042 L28.2,18.846 L28.2,19.225 L28.2,19.225 Z" id="Fill-15" sketch:type="MSShapeGroup"></path>
            <path d="M12.506,28.669 L11.095,28.669 L11.095,26.874 L11.483,26.874 L11.483,27.458 L12.123,27.458 L12.123,26.874 L12.506,26.874 L12.506,27.614 L12.915,27.614 L12.915,26.658 L13.302,26.658 L13.302,29.217 L12.915,29.217 L12.915,27.949 L12.506,27.949 L12.506,28.669 L12.506,28.669 Z M11.483,28.342 L12.123,28.342 L12.123,27.778 L11.483,27.778 L11.483,28.342 Z M14.106,29.797 L14.106,30.133 L11.619,30.133 L11.619,28.965 L12.035,28.965 L12.035,29.797 L14.106,29.797 L14.106,29.797 Z M13.614,26.591 L14.006,26.591 L14.006,29.325 L13.614,29.325 L13.614,26.591 Z" id="Fill-16" sketch:type="MSShapeGroup"></path>
            <path d="M15.923,27.737 C15.923,28.302 16.267,28.889 16.815,29.141 L16.599,29.457 C16.191,29.269 15.883,28.901 15.724,28.457 C15.567,28.929 15.268,29.325 14.852,29.52 L14.624,29.201 C15.176,28.941 15.516,28.329 15.516,27.737 L15.516,27.53 L14.735,27.53 L14.735,27.198 L15.512,27.198 L15.512,26.662 L15.927,26.662 L15.927,27.198 L16.687,27.198 L16.687,27.53 L15.923,27.53 L15.923,27.737 L15.923,27.737 Z M17.626,26.582 L17.626,30.208 L17.215,30.208 L17.215,28.346 L16.499,28.346 L16.499,28.01 L17.215,28.01 L17.215,26.582 L17.626,26.582 L17.626,26.582 Z" id="Fill-17" sketch:type="MSShapeGroup"></path>
            <path d="M20.227,26.97 C20.227,28.046 19.795,28.957 18.556,29.557 L18.336,29.228 C19.283,28.773 19.731,28.138 19.803,27.306 L18.516,27.306 L18.516,26.97 L20.227,26.97 L20.227,26.97 Z M20.878,26.591 L21.29,26.591 L21.29,30.2 L20.878,30.2 L20.878,26.591 Z" id="Fill-18" sketch:type="MSShapeGroup"></path>
            <path d="M24.982,26.591 L24.982,28.525 L24.57,28.525 L24.57,27.758 L23.903,27.758 C23.831,28.166 23.463,28.441 22.983,28.441 C22.44,28.441 22.04,28.094 22.04,27.594 C22.04,27.098 22.44,26.75 22.983,26.75 C23.459,26.75 23.823,27.019 23.903,27.422 L24.57,27.422 L24.57,26.591 L24.982,26.591 L24.982,26.591 Z M23.527,27.594 C23.527,27.286 23.295,27.09 22.983,27.09 C22.663,27.09 22.435,27.286 22.435,27.594 C22.435,27.897 22.663,28.102 22.983,28.102 C23.295,28.102 23.527,27.897 23.527,27.594 L23.527,27.594 Z M24.574,28.697 L24.982,28.697 L24.982,30.156 L22.636,30.156 L22.636,28.697 L23.043,28.697 L23.043,29.106 L24.574,29.106 L24.574,28.697 L24.574,28.697 Z M23.043,29.824 L24.574,29.824 L24.574,29.425 L23.043,29.425 L23.043,29.824 Z" id="Fill-19" sketch:type="MSShapeGroup"></path>
            <path d="M26.699,28.638 C26.155,28.638 25.739,28.258 25.739,27.733 C25.739,27.206 26.155,26.83 26.699,26.83 C27.243,26.83 27.654,27.206 27.654,27.733 C27.654,28.258 27.243,28.638 26.699,28.638 L26.699,28.638 Z M26.699,28.281 C27.015,28.281 27.255,28.061 27.255,27.733 C27.255,27.402 27.015,27.187 26.699,27.187 C26.379,27.187 26.144,27.402 26.144,27.733 C26.144,28.061 26.379,28.281 26.699,28.281 L26.699,28.281 Z M28.75,29.797 L28.75,30.133 L26.287,30.133 L26.287,28.949 L26.703,28.949 L26.703,29.797 L28.75,29.797 L28.75,29.797 Z M28.234,26.591 L28.646,26.591 L28.646,29.213 L28.234,29.213 L28.234,26.591 Z" id="Fill-20" sketch:type="MSShapeGroup"></path>
            <path d="M29.349,28.285 L32.615,28.285 L32.615,28.617 L29.349,28.617 L29.349,28.285 Z M29.513,27.781 C30.184,27.714 30.651,27.426 30.703,27.098 L29.652,27.098 L29.652,26.767 L32.318,26.767 L32.318,27.098 L31.259,27.098 C31.312,27.426 31.779,27.714 32.45,27.781 L32.307,28.102 C31.667,28.033 31.176,27.773 30.983,27.402 C30.787,27.773 30.292,28.033 29.66,28.102 L29.513,27.781 L29.513,27.781 Z M32.219,29.541 C32.219,29.961 31.751,30.2 30.976,30.2 C30.204,30.2 29.732,29.961 29.732,29.541 C29.732,29.121 30.204,28.877 30.976,28.877 C31.751,28.877 32.219,29.121 32.219,29.541 L32.219,29.541 Z M31.803,29.541 C31.803,29.316 31.503,29.201 30.976,29.201 C30.447,29.201 30.152,29.316 30.152,29.541 C30.152,29.761 30.447,29.877 30.976,29.877 C31.503,29.877 31.803,29.761 31.803,29.541 L31.803,29.541 Z" id="Fill-21" sketch:type="MSShapeGroup"></path>
            <path d="M0.483,33.441 C0.483,32.653 0.703,32.002 1.075,31.398 L1.363,31.522 C1.019,32.098 0.859,32.773 0.859,33.441 C0.859,34.112 1.019,34.788 1.363,35.36 L1.075,35.488 C0.703,34.88 0.483,34.236 0.483,33.441" id="Fill-22" sketch:type="MSShapeGroup"></path>
            <path d="M5.014,33.753 L3.578,33.753 L3.578,35.004 L3.167,35.004 L3.167,33.753 L1.752,33.753 L1.752,33.421 L5.018,33.421 L5.014,33.753 L5.014,33.753 Z M1.931,32.833 C2.619,32.741 3.127,32.346 3.15,31.926 L2.051,31.926 L2.051,31.594 L4.71,31.594 L4.71,31.926 L3.618,31.926 C3.642,32.346 4.15,32.741 4.837,32.833 L4.69,33.157 C4.094,33.069 3.602,32.773 3.382,32.374 C3.163,32.773 2.675,33.069 2.079,33.157 L1.931,32.833 L1.931,32.833 Z" id="Fill-23" sketch:type="MSShapeGroup"></path>
            <path d="M5.412,35.36 C5.755,34.788 5.915,34.112 5.915,33.441 C5.915,32.773 5.755,32.098 5.412,31.522 L5.699,31.398 C6.075,32.002 6.295,32.653 6.295,33.441 C6.295,34.236 6.075,34.88 5.699,35.488 L5.412,35.36" id="Fill-24" sketch:type="MSShapeGroup"></path>
            <path d="M7.839,33.345 C7.495,33.361 7.167,33.365 6.883,33.365 L6.832,33.029 C7.495,33.025 8.382,33.018 9.146,32.921 L9.178,33.217 C8.874,33.27 8.559,33.305 8.25,33.321 L8.25,34.017 L7.839,34.017 L7.839,33.345 L7.839,33.345 Z M7.107,32.162 C7.107,31.778 7.471,31.526 8.003,31.526 C8.53,31.526 8.894,31.778 8.894,32.162 C8.894,32.546 8.53,32.798 8.003,32.798 C7.471,32.798 7.107,32.546 7.107,32.162 L7.107,32.162 Z M9.926,34.597 L9.926,34.933 L7.319,34.933 L7.319,33.865 L7.731,33.865 L7.731,34.597 L9.926,34.597 L9.926,34.597 Z M7.499,32.162 C7.499,32.365 7.703,32.493 8.003,32.493 C8.298,32.493 8.502,32.365 8.502,32.162 C8.502,31.958 8.298,31.83 8.003,31.83 C7.703,31.83 7.499,31.958 7.499,32.162 L7.499,32.162 Z M9.43,33.509 L9.43,31.386 L9.842,31.386 L9.842,34.133 L9.43,34.133 L9.43,33.797 L8.722,33.797 L8.722,33.509 L9.43,33.509 L9.43,33.509 Z" id="Fill-25" sketch:type="MSShapeGroup"></path>
            <path d="M11.083,33.809 C11.675,33.805 12.127,33.781 12.634,33.689 L12.678,34.024 C12.123,34.125 11.639,34.148 10.971,34.148 L10.675,34.148 L10.675,32.722 L11.911,32.722 L11.911,32.046 L10.668,32.046 L10.668,31.71 L12.318,31.71 L12.318,33.054 L11.083,33.054 L11.083,33.809 L11.083,33.809 Z M13.89,33.138 L13.334,33.138 L13.334,35.004 L12.918,35.004 L12.918,31.382 L13.334,31.382 L13.334,32.793 L13.89,32.793 L13.89,33.138 L13.89,33.138 Z" id="Fill-26" sketch:type="MSShapeGroup"></path>
            <path d="M16.19,32.926 C16.19,33.709 15.799,34.2 15.259,34.2 C14.724,34.2 14.331,33.709 14.331,32.926 C14.331,32.149 14.724,31.654 15.259,31.654 C15.799,31.654 16.19,32.149 16.19,32.926 L16.19,32.926 Z M14.728,32.926 C14.728,33.493 14.947,33.833 15.259,33.833 C15.575,33.833 15.795,33.493 15.795,32.926 C15.795,32.365 15.575,32.025 15.259,32.025 C14.947,32.025 14.728,32.365 14.728,32.926 L14.728,32.926 Z M16.766,31.386 L17.182,31.386 L17.182,35.008 L16.766,35.008 L16.766,31.386 Z" id="Fill-27" sketch:type="MSShapeGroup"></path>
            <path d="M17.888,34.217 L21.166,34.217 L21.166,34.557 L17.888,34.557 L17.888,34.217 Z M18.691,32.062 L18.159,32.062 L18.159,31.731 L20.874,31.731 L20.874,32.062 L20.343,32.062 L20.343,33.241 L20.866,33.241 L20.866,33.577 L18.172,33.577 L18.172,33.241 L18.691,33.241 L18.691,32.062 L18.691,32.062 Z M19.103,33.241 L19.935,33.241 L19.935,32.061 L19.103,32.061 L19.103,33.241 Z" id="Fill-28" sketch:type="MSShapeGroup"></path>
            <path d="M22.559,33.345 C22.215,33.361 21.887,33.365 21.603,33.365 L21.552,33.029 C22.215,33.025 23.103,33.018 23.866,32.921 L23.898,33.217 C23.594,33.27 23.278,33.305 22.971,33.321 L22.971,34.017 L22.559,34.017 L22.559,33.345 L22.559,33.345 Z M21.827,32.162 C21.827,31.778 22.191,31.526 22.723,31.526 C23.25,31.526 23.614,31.778 23.614,32.162 C23.614,32.546 23.25,32.798 22.723,32.798 C22.191,32.798 21.827,32.546 21.827,32.162 L21.827,32.162 Z M24.646,34.597 L24.646,34.933 L22.039,34.933 L22.039,33.865 L22.451,33.865 L22.451,34.597 L24.646,34.597 L24.646,34.597 Z M22.219,32.162 C22.219,32.365 22.423,32.493 22.723,32.493 C23.019,32.493 23.223,32.365 23.223,32.162 C23.223,31.958 23.019,31.83 22.723,31.83 C22.423,31.83 22.219,31.958 22.219,32.162 L22.219,32.162 Z M24.15,33.509 L24.15,31.386 L24.562,31.386 L24.562,34.133 L24.15,34.133 L24.15,33.797 L23.442,33.797 L23.442,33.509 L24.15,33.509 L24.15,33.509 Z" id="Fill-29" sketch:type="MSShapeGroup"></path>
            <path d="M25.768,33.829 C26.211,33.825 26.515,33.809 26.871,33.745 L26.907,34.081 C26.499,34.152 26.159,34.165 25.611,34.165 L25.372,34.165 L25.372,31.806 L26.711,31.806 L26.711,32.138 L25.768,32.138 L25.768,32.781 L26.559,32.781 L26.559,33.105 L25.768,33.105 L25.768,33.829 L25.768,33.829 Z M27.203,31.466 L27.591,31.466 L27.591,34.828 L27.203,34.828 L27.203,33.073 L26.739,33.073 L26.739,32.733 L27.203,32.733 L27.203,31.466 L27.203,31.466 Z M27.939,31.386 L28.335,31.386 L28.335,34.996 L27.939,34.996 L27.939,31.386 Z" id="Fill-30" sketch:type="MSShapeGroup"></path>
            <path d="M28.932,34.192 L32.194,34.192 L32.194,34.532 L28.932,34.532 L28.932,34.192 Z M31.414,32.73 C31.422,32.537 31.422,32.353 31.422,32.17 L31.422,32.065 L29.311,32.065 L29.311,31.734 L31.826,31.734 L31.826,32.17 C31.826,32.693 31.826,33.19 31.666,33.949 L31.258,33.913 C31.334,33.589 31.374,33.305 31.395,33.041 L29.264,33.149 L29.211,32.813 L31.414,32.73 L31.414,32.73 Z" id="Fill-31" sketch:type="MSShapeGroup"></path>
            <path d="M35.882,32.853 L35.882,33.185 L32.604,33.185 L32.604,32.853 L34.039,32.853 L34.039,32.506 L33.032,32.506 L33.032,31.435 L33.44,31.435 L33.44,32.178 L35.503,32.178 L35.503,32.506 L34.451,32.506 L34.451,32.853 L35.882,32.853 L35.882,32.853 Z M33.42,34.637 L35.591,34.637 L35.591,34.956 L33.008,34.956 L33.008,34.028 L35.066,34.028 L35.066,33.757 L33,33.757 L33,33.441 L35.478,33.441 L35.478,34.324 L33.42,34.324 L33.42,34.637 L33.42,34.637 Z" id="Fill-32" sketch:type="MSShapeGroup"></path>
            <path d="M39.562,34.236 L39.562,34.576 L36.292,34.576 L36.292,34.236 L37.715,34.236 L37.715,33.621 L36.688,33.621 L36.688,32.458 L38.767,32.458 L38.767,31.974 L36.68,31.974 L36.68,31.642 L39.174,31.642 L39.174,32.785 L37.092,32.785 L37.092,33.289 L39.254,33.289 L39.254,33.621 L38.127,33.621 L38.127,34.236 L39.562,34.236" id="Fill-33" sketch:type="MSShapeGroup"></path>
            <path d="M41.303,32.434 C41.303,33.033 41.675,33.657 42.238,33.897 L42.011,34.221 C41.591,34.037 41.267,33.645 41.099,33.177 C40.939,33.681 40.615,34.108 40.191,34.313 L39.955,33.984 C40.516,33.725 40.887,33.054 40.887,32.434 L40.887,32.09 L40.083,32.09 L40.083,31.75 L42.106,31.75 L42.106,32.09 L41.303,32.09 L41.303,32.434 L41.303,32.434 Z M42.526,31.391 L42.941,31.391 L42.941,35 L42.526,35 L42.526,31.391 Z" id="Fill-34" sketch:type="MSShapeGroup"></path>
        </g>
    </g>
</svg>